<?xml version="1.0" standalone="no"?>
<!DOCTYPE svg PUBLIC "-//W3C//DTD SVG 20010904//EN"
 "http://www.w3.org/TR/2001/REC-SVG-20010904/DTD/svg10.dtd">
<svg version="1.0" xmlns="http://www.w3.org/2000/svg"
 width="512.000000pt" height="512.000000pt" viewBox="0 0 512.000000 512.000000"
 preserveAspectRatio="xMidYMid meet">

<g transform="translate(0.000000,512.000000) scale(0.100000,-0.100000)"
fill="#000000" stroke="none">
<path d="M1690 4953 c-372 -48 -639 -341 -642 -703 l-1 -85 -64 -40 c-82 -52
-165 -133 -219 -216 -39 -61 -84 -156 -84 -179 0 -6 33 -10 75 -10 l74 0 28
57 c62 128 214 250 359 288 75 19 213 19 288 0 144 -38 295 -158 360 -288 l28
-57 74 0 c41 0 74 4 74 10 0 22 -43 115 -80 174 -49 78 -166 191 -242 234 -59
34 -143 66 -217 83 -52 12 -210 14 -263 4 l-38 -7 0 54 c0 128 59 257 165 363
113 114 236 165 395 165 159 0 282 -51 395 -165 102 -102 165 -235 165 -351
l0 -42 -134 -4 c-155 -4 -176 -13 -176 -78 0 -65 21 -74 176 -78 l134 -4 0
-179 0 -179 81 0 81 0 -5 313 c-6 350 -11 387 -77 522 -114 233 -338 381 -605
398 -38 3 -86 3 -105 0z"/>
<path d="M3354 4950 c-92 -13 -141 -28 -229 -70 -143 -69 -255 -181 -325 -325
-66 -135 -72 -172 -77 -522 l-5 -313 81 0 81 0 0 179 0 179 134 4 c155 4 176
13 176 78 0 65 -21 74 -176 78 l-134 4 0 42 c0 116 63 249 165 351 113 114
236 165 395 165 159 0 282 -51 395 -165 106 -106 165 -235 165 -363 l0 -54
-42 8 c-24 4 -82 7 -129 6 -236 -1 -454 -122 -585 -323 -39 -61 -84 -156 -84
-179 0 -6 33 -10 75 -10 l74 0 27 54 c67 137 196 243 353 290 72 21 230 21
302 0 145 -43 291 -162 352 -287 l28 -57 74 0 c46 0 75 4 75 11 0 22 -45 116
-85 179 -53 82 -136 163 -219 215 l-64 40 0 86 c-2 269 -155 511 -397 629
-124 61 -274 87 -401 70z"/>
</g>
</svg>
